<svg width="1920" height="1080" viewBox="0 0 1920 1080" xmlns="http://www.w3.org/2000/svg"><rect width="1920" height="1080" fill="#bbb0e8"/><path d="M 0,1080 C 0,1080 0,180 0,180 C 86.37948717948717,152.0051282051282 172.75897435897434,124.0102564102564 278,124 C 383.24102564102566,123.9897435897436 507.34358974358986,151.96410256410257 623,159 C 738.6564102564101,166.03589743589743 845.8666666666666,152.13333333333333 953,163 C 1060.1333333333334,173.86666666666667 1167.1897435897436,209.5025641025641 1285,215 C 1402.8102564102564,220.4974358974359 1531.374358974359,195.85641025641027 1639,185 C 1746.625641025641,174.14358974358973 1833.3128205128205,177.07179487179485 1920,180 C 1920,180 1920,1080 1920,1080 Z" fill="#6e56cf" opacity="0.09999999999999999"/><path d="M 0,1080 C 0,1080 0,360 0,360 C 92.5974358974359,361.0333333333333 185.1948717948718,362.06666666666666 280,342 C 374.8051282051282,321.93333333333334 471.81794871794864,280.76666666666665 604,302 C 736.1820512820514,323.23333333333335 903.5333333333333,406.8666666666667 1018,407 C 1132.4666666666667,407.1333333333333 1194.0487179487181,323.7666666666667 1297,293 C 1399.9512820512819,262.2333333333333 1544.2717948717948,284.06666666666666 1655,304 C 1765.7282051282052,323.93333333333334 1842.8641025641027,341.9666666666667 1920,360 C 1920,360 1920,1080 1920,1080 Z" fill="#6e56cf" opacity="0.19999999999999998"/><path d="M 0,1080 C 0,1080 0,540 0,540 C 110.16923076923078,547.3461538461538 220.33846153846156,554.6923076923077 326,539 C 431.66153846153844,523.3076923076923 532.8153846153847,484.5769230769231 627,474 C 721.1846153846153,463.4230769230769 808.3999999999999,480.9999999999999 927,516 C 1045.6000000000001,551.0000000000001 1195.5846153846155,603.4230769230769 1319,596 C 1442.4153846153845,588.5769230769231 1539.2615384615385,521.3076923076924 1635,502 C 1730.7384615384615,482.6923076923077 1825.3692307692309,511.3461538461538 1920,540 C 1920,540 1920,1080 1920,1080 Z" fill="#6e56cf" opacity="0.3"/><path d="M 0,1080 C 0,1080 0,720 0,720 C 114.88205128205126,729.6794871794872 229.76410256410253,739.3589743589744 337,724 C 444.23589743589747,708.6410256410256 543.8256410256411,668.2435897435897 636,656 C 728.1743589743589,643.7564102564103 812.9333333333334,659.6666666666666 937,664 C 1061.0666666666666,668.3333333333334 1224.4410256410256,661.0897435897435 1328,677 C 1431.5589743589744,692.9102564102565 1475.3025641025642,731.9743589743589 1564,743 C 1652.6974358974358,754.0256410256411 1786.3487179487179,737.0128205128206 1920,720 C 1920,720 1920,1080 1920,1080 Z" fill="#6e56cf" opacity="0.39999999999999997"/><path d="M 0,1080 C 0,1080 0,900 0,900 C 102.5948717948718,879.9153846153846 205.1897435897436,859.8307692307692 325,879 C 444.8102564102564,898.1692307692308 581.8358974358973,956.5923076923077 696,961 C 810.1641025641027,965.4076923076923 901.4666666666667,915.8000000000001 997,898 C 1092.5333333333333,880.1999999999999 1192.2974358974357,894.2076923076922 1282,898 C 1371.7025641025643,901.7923076923078 1451.34358974359,895.3692307692307 1556,894 C 1660.65641025641,892.6307692307693 1790.328205128205,896.3153846153846 1920,900 C 1920,900 1920,1080 1920,1080 Z" fill="#6e56cf" opacity="0.49999999999999994"/></svg>